<?xml version="1.0" encoding="UTF-8"?>
<svg width="33px" height="33px" viewBox="0 0 33 33" version="1.1" xmlns="http://www.w3.org/2000/svg" xmlns:xlink="http://www.w3.org/1999/xlink">
    <title>2 Score</title>
    <g id="2-Score" stroke="none" stroke-width="1" fill="none" fill-rule="evenodd">
        <g id="Group-23-Copy-2" transform="translate(1.000000, 1.000000)" stroke-linejoin="round">
            <g id="Group-5">
                <path d="M31,15.5 C31,24.0604476 24.0607867,31 15.5007574,31 C6.93921329,31 0,24.0604476 0,15.5 C0,6.93955238 6.93921329,0 15.5007574,0 C24.0607867,0 31,6.93955238 31,15.5 Z" id="Stroke-1" stroke="#F5F5F5" stroke-width="2" stroke-linecap="round"></path>
                <g transform="translate(15.503700, 0.004400)" id="Stroke-3" stroke="#F98670" stroke-width="2.009">
                    <path d="M14.746,10.709 C13.725,7.566 11.728,4.863 9.112,2.959 C6.555,1.098 3.406,0 0,0"></path>
                </g>
            </g>
        </g>
        <path d="M19.8837891,21.5898438 L19.8837891,20.2636719 L15.2626953,20.2636719 L17.6962891,17.6591797 C18.3343099,16.9664714 18.793457,16.347819 19.0737305,15.8032227 C19.3540039,15.2586263 19.4941406,14.7379557 19.4941406,14.2412109 C19.4941406,13.3844401 19.2150065,12.7133789 18.6567383,12.2280273 C18.0984701,11.7426758 17.336263,11.5 16.3701172,11.5 C15.7001953,11.5 15.1088867,11.6344401 14.5961914,11.9033203 C14.0834961,12.1722005 13.6892904,12.5493164 13.4135742,13.034668 C13.1378581,13.5200195 13,14.0657552 13,14.671875 L13,14.671875 L14.6611328,14.671875 C14.6611328,14.1022135 14.8092448,13.6533203 15.1054688,13.3251953 C15.4016927,12.9970703 15.8186849,12.8330078 16.3564453,12.8330078 C16.8076172,12.8330078 17.1665039,12.9788411 17.4331055,13.2705078 C17.699707,13.5621745 17.8330078,13.944987 17.8330078,14.4189453 C17.8330078,14.7789714 17.7316081,15.1378581 17.5288086,15.4956055 C17.3260091,15.8533529 16.9853516,16.2988281 16.5068359,16.8320312 L16.5068359,16.8320312 L13.1914062,20.4482422 L13.1914062,21.5898438 L19.8837891,21.5898438 Z" id="2" fill="#272727" fill-rule="nonzero"></path>
    </g>
</svg>