<?xml version="1.0" encoding="UTF-8"?>
<svg width="33px" height="33px" viewBox="0 0 33 33" version="1.1" xmlns="http://www.w3.org/2000/svg" xmlns:xlink="http://www.w3.org/1999/xlink">
    <title>4 Score</title>
    <g id="4-Score" stroke="none" stroke-width="1" fill="none" fill-rule="evenodd">
        <g id="Group-23" transform="translate(1.000000, 1.000000)" stroke-linejoin="round" stroke-width="2">
            <g id="Group-5">
                <path d="M31,15.5 C31,24.0604476 24.0607867,31 15.5007574,31 C6.93921329,31 0,24.0604476 0,15.5 C0,6.93955238 6.93921329,0 15.5007574,0 C24.0607867,0 31,6.93955238 31,15.5 Z" id="Stroke-1" stroke="#F5F5F5" stroke-linecap="round"></path>
                <path d="M24.6113847,28.05 C27.2266896,26.1451037 29.2253288,23.4414771 30.2447353,20.2977954 C30.7348539,18.7887478 31,17.1772216 31,15.5054139 C31,13.8326015 30.7348539,12.2220799 30.2447353,10.7120277 C29.2253288,7.56834593 27.2276939,4.86471937 24.6113847,2.95982306 C22.0543316,1.09812851 18.9047172,0 15.5,0" id="Stroke-1" stroke="#FCBE7B"></path>
            </g>
        </g>
        <path d="M18.9087891,21.553125 L18.9087891,19.3382813 L20.1460938,19.3382813 L20.1460938,18.0052734 L18.9087891,18.0052734 L18.9087891,11.6 L17.1929688,11.6 L12.9,18.3265625 L12.9478516,19.3382813 L17.2476563,19.3382813 L17.2476563,21.553125 L18.9087891,21.553125 Z M17.2476563,18.0052734 L14.6431641,18.0052734 L17.1246094,14.0677734 L17.2476563,13.8490234 L17.2476563,18.0052734 Z" id="4" fill="#272727" fill-rule="nonzero"></path>
    </g>
</svg>