<?xml version="1.0" encoding="UTF-8"?>
<svg width="33px" height="33px" viewBox="0 0 33 33" version="1.1" xmlns="http://www.w3.org/2000/svg" xmlns:xlink="http://www.w3.org/1999/xlink">
    <title>5 Score</title>
    <g id="5-Score" stroke="none" stroke-width="1" fill="none" fill-rule="evenodd">
        <path d="M32,16.5 C32,25.0604476 25.0607867,32 16.5007574,32 C7.93921329,32 1,25.0604476 1,16.5 C1,7.93955238 7.93921329,1 16.5007574,1 C25.0607867,1 32,7.93955238 32,16.5 Z" id="Stroke-1" stroke="#F5F5F5" stroke-width="2" stroke-linecap="round" stroke-linejoin="round"></path>
        <path d="M16.6,32 C19.9827512,32 23.1110478,30.9022549 25.6526016,29.0412104 C28.2510335,27.1369792 30.2367783,24.4342966 31.249608,21.2907082 C31.7365645,19.7821875 32,18.1722283 32,16.5 C32,14.8277717 31.7365645,13.2178125 31.249608,11.7092918 C30.2367783,8.56570336 28.2520314,5.86402514 25.6526016,3.95979395 C23.1110478,2.09874943 19.9827512,1 16.6,1" id="Stroke-1" stroke="#FDDC82" stroke-width="2" stroke-linejoin="round"></path>
        <path d="M16.2402344,21.5898438 C17.2565104,21.5898438 18.0563151,21.2902018 18.6396484,20.690918 C19.2229818,20.0916341 19.5146484,19.2861328 19.5146484,18.2744141 C19.5146484,17.2490234 19.2514648,16.4332682 18.7250977,15.8271484 C18.1987305,15.2210286 17.4615885,14.9179688 16.5136719,14.9179688 C15.9348958,14.9179688 15.4153646,15.0501302 14.9550781,15.3144531 L14.9550781,15.3144531 L15.2285156,12.9355469 L19.1933594,12.9355469 L19.1933594,11.5 L13.8476562,11.5 L13.3076172,16.5175781 L14.6337891,16.8457031 C14.8798828,16.6132812 15.1077474,16.457194 15.3173828,16.3774414 C15.5270182,16.2976888 15.7822266,16.2578125 16.0830078,16.2578125 C16.6344401,16.2578125 17.0673828,16.4344076 17.3818359,16.7875977 C17.6962891,17.1407878 17.8535156,17.6204427 17.8535156,18.2265625 C17.8535156,18.8554688 17.7111003,19.3522135 17.4262695,19.7167969 C17.1414388,20.0813802 16.7438151,20.2636719 16.2333984,20.2636719 C15.7776693,20.2636719 15.4085286,20.1349284 15.1259766,19.8774414 C14.8434245,19.6199544 14.6702474,19.2496745 14.6064453,18.7666016 L14.6064453,18.7666016 L13,18.7666016 C13.0501302,19.6142578 13.3748372,20.2967122 13.9741211,20.8139648 C14.5734049,21.3312174 15.328776,21.5898438 16.2402344,21.5898438 Z" id="5" fill="#272727" fill-rule="nonzero"></path>
    </g>
</svg>