<?xml version="1.0" encoding="UTF-8"?>
<svg width="33px" height="33px" viewBox="0 0 33 33" version="1.1" xmlns="http://www.w3.org/2000/svg" xmlns:xlink="http://www.w3.org/1999/xlink">
    <title>7 Score</title>
    <g id="7-Score" stroke="none" stroke-width="1" fill="none" fill-rule="evenodd">
        <path d="M32,16.5 C32,25.0604476 25.0607867,32 16.5007574,32 C7.93921329,32 1,25.0604476 1,16.5 C1,7.93955238 7.93921329,1 16.5007574,1 C25.0607867,1 32,7.93955238 32,16.5 Z" id="Stroke-1" stroke="#F5F5F5" stroke-width="2" stroke-linecap="round" stroke-linejoin="round"></path>
        <path d="M1.739025,21.2907082 C2.7594358,24.4332923 4.75707072,27.1359749 7.3733799,29.0402061 C9.93043294,30.9012506 13.079043,32 16.4847645,32 C19.8894816,32 23.0380917,30.9012506 25.5951448,29.0402061 C28.2114539,27.1359749 30.2090889,24.4332923 31.2294997,21.2907082 C31.7196182,19.7821875 31.98376,18.1722283 31.98376,16.5 C31.98376,14.8277717 31.7196182,13.2178125 31.2294997,11.7082874 C30.2090889,8.56570336 28.2114539,5.8630208 25.5951448,3.95979395 C23.0380917,2.09874943 19.8894816,1 16.4847645,1" id="Stroke-1" stroke="#C0D17C" stroke-width="2" stroke-linejoin="round"></path>
        <polygon id="7" fill="#272727" fill-rule="nonzero" points="16.0121093 21.6 19.9906249 12.5697266 19.9906249 11.646875 13.093164 11.646875 13.093164 12.9798828 18.2406249 12.9798828 14.2689452 21.6"></polygon>
    </g>
</svg>