<?xml version="1.0" encoding="UTF-8"?>
<svg width="33px" height="33px" viewBox="0 0 33 33" version="1.1" xmlns="http://www.w3.org/2000/svg" xmlns:xlink="http://www.w3.org/1999/xlink">
    <title>8 Score</title>
    <g id="8-Score" stroke="none" stroke-width="1" fill="none" fill-rule="evenodd">
        <g id="Group-21-Copy-3" transform="translate(1.000000, 1.000000)" stroke-linejoin="round" stroke-width="2">
            <g id="Group-5">
                <path d="M31,15.5 C31,24.0604476 24.0592719,31 15.4992426,31 C6.93921329,31 4.54747351e-13,24.0604476 4.54747351e-13,15.5 C4.54747351e-13,6.93955238 6.93921329,0 15.4992426,0 C24.0592719,0 31,6.93955238 31,15.5 Z" id="Stroke-1" stroke="#F5F5F5" stroke-linecap="round"></path>
                <path d="M0.754284789,10.7092918 C0.264150332,12.2178125 0,13.8277717 0,15.5010043 C0,17.1722283 0.264150332,18.7831919 0.754284789,20.2917126 C1.77472866,23.4342966 3.77242832,26.1369792 6.38882229,28.0412104 C8.94595821,29.9022549 12.0946703,31 15.5005022,31 C18.9053297,31 22.0540418,29.9022549 24.6111777,28.0412104 C27.2275717,26.1369792 29.2252713,23.4342966 30.2457152,20.2917126 C30.7358497,18.7831919 31,17.1722283 31,15.5010043 C31,13.8277717 30.7358497,12.2178125 30.2457152,10.7092918 C29.2252713,7.5667077 27.2275717,4.86402514 24.6111777,2.95979395 C22.0540418,1.09874943 18.9053297,0 15.5005022,0" id="Stroke-1" stroke="#A0C778"></path>
            </g>
        </g>
        <path d="M16.5675781,21.6265625 C17.5519531,21.6265625 18.3403646,21.3702148 18.9328125,20.8575195 C19.5252604,20.3448242 19.8214844,19.6509766 19.8214844,18.7759766 C19.8214844,18.2473307 19.6813477,17.7733724 19.4010742,17.3541016 C19.1208008,16.9348307 18.7208984,16.6044271 18.2013672,16.3628906 C18.6343099,16.1441406 18.9761068,15.8444987 19.2267578,15.4639648 C19.4774089,15.083431 19.6027344,14.649349 19.6027344,14.1617187 C19.6027344,13.3140625 19.3292969,12.641862 18.7824219,12.1451172 C18.2355469,11.6483724 17.494987,11.4 16.5607422,11.4 C15.6310547,11.4 14.8927734,11.6483724 14.3458984,12.1451172 C13.7990234,12.641862 13.5255859,13.3140625 13.5255859,14.1617187 C13.5255859,14.649349 13.6497721,15.083431 13.8981445,15.4639648 C14.1465169,15.8444987 14.4848958,16.1441406 14.9132813,16.3628906 C14.4028646,16.5907552 14.0063802,16.9166016 13.7238281,17.3404297 C13.441276,17.7642578 13.3,18.2427734 13.3,18.7759766 C13.3,19.6464193 13.5973633,20.3391276 14.1920898,20.8541016 C14.7868164,21.3690755 15.5786458,21.6265625 16.5675781,21.6265625 Z M16.5675781,15.7134766 C16.14375,15.7134766 15.8076497,15.5790365 15.5592773,15.3101562 C15.3109049,15.041276 15.1867188,14.6789714 15.1867188,14.2232422 C15.1867188,13.7629557 15.3097656,13.3995117 15.5558594,13.1329102 C15.8019531,12.8663086 16.1369141,12.7330078 16.5607422,12.7330078 C16.9845703,12.7330078 17.3218099,12.8731445 17.5724609,13.153418 C17.823112,13.4336914 17.9484375,13.7902995 17.9484375,14.2232422 C17.9484375,14.6789714 17.8242513,15.041276 17.5758789,15.3101562 C17.3275065,15.5790365 16.9914063,15.7134766 16.5675781,15.7134766 Z M16.5675781,20.3003906 C16.066276,20.3003906 15.6732096,20.1545573 15.3883789,19.8628906 C15.1035482,19.571224 14.9611328,19.1815755 14.9611328,18.6939453 C14.9611328,18.1972005 15.1058268,17.7984375 15.3952148,17.4976562 C15.6846029,17.196875 16.0708333,17.0464844 16.5539063,17.0464844 C17.0369792,17.0464844 17.4254883,17.1980143 17.7194336,17.5010742 C18.0133789,17.8041341 18.1603516,18.2017578 18.1603516,18.6939453 C18.1603516,19.1998047 18.0202148,19.5940104 17.7399414,19.8765625 C17.459668,20.1591146 17.0688802,20.3003906 16.5675781,20.3003906 Z" id="8" fill="#272727" fill-rule="nonzero"></path>
    </g>
</svg>