<?xml version="1.0" encoding="UTF-8"?>
<svg width="33px" height="33px" viewBox="0 0 33 33" version="1.1" xmlns="http://www.w3.org/2000/svg" xmlns:xlink="http://www.w3.org/1999/xlink">
    <title>9 Score</title>
    <g id="9-Score" stroke="none" stroke-width="1" fill="none" fill-rule="evenodd">
        <g id="Group" transform="translate(1.000000, 1.000000)" stroke-linejoin="round" stroke-width="2">
            <g id="Group-21-Copy" transform="translate(0.000000, 0.000000)" stroke="#F5F5F5" stroke-linecap="round">
                <g id="Group-5">
                    <path d="M31,15.5 C31,24.0604476 24.0592719,31 15.4992426,31 C6.93921329,31 0,24.0604476 0,15.5 C0,6.93955238 6.93921329,0 15.4992426,0 C24.0592719,0 31,6.93955238 31,15.5 Z" id="Stroke-1"></path>
                </g>
            </g>
            <path d="M6.38851351,2.95936293 C3.77226512,4.86344916 1.77541828,7.56647362 0.75505148,10.7093629 C0.264317889,12.217471 0,13.828314 0,15.5 C0,17.1726834 0.264317889,18.782529 0.75505148,20.2906371 C1.77541828,23.4345238 3.77226512,26.1365508 6.38851351,28.0406371 C8.94591377,29.901834 12.0947876,31 15.5,31 C18.9052124,31 22.0540862,29.901834 24.6114865,28.0406371 C27.2277349,26.1365508 29.2245817,23.4345238 30.2449485,20.2906371 C30.7356821,18.782529 31,17.1726834 31,15.5 C31,13.828314 30.7356821,12.217471 30.2449485,10.7093629 C29.2245817,7.56647362 27.2277349,4.86344916 24.6114865,2.95936293 C22.0540862,1.09816602 18.9052124,0 15.5,0" id="Stroke-1" stroke="#86C87D"></path>
        </g>
        <path d="M14.897852,21.6410154 C16.506576,21.6273435 17.7165369,21.1488279 18.5277348,20.2054685 C19.3389327,19.2621091 19.7445317,17.892643 19.7445317,16.0970701 L19.7445317,16.0970701 L19.7445317,15.6322263 C19.7445317,14.3789711 19.4505864,13.3786456 18.8626958,12.6312498 C18.2748051,11.8838539 17.4795577,11.510156 16.4769536,11.510156 C15.8343754,11.510156 15.2692713,11.658268 14.7816411,11.9544919 C14.2940109,12.2507159 13.9180343,12.6654294 13.6537114,13.1986326 C13.3893885,13.7318357 13.257227,14.3265623 13.257227,14.9828123 C13.257227,15.9808591 13.5169926,16.7863604 14.0365239,17.3993162 C14.5560551,18.0122719 15.2533208,18.3187498 16.1283208,18.3187498 C16.8711593,18.3187498 17.5205734,18.0248044 18.0765629,17.4369138 C18.0127609,18.3939451 17.7188155,19.1014646 17.194727,19.5594724 C16.6706385,20.0174802 15.9186853,20.2533201 14.9388676,20.2669919 L14.9388676,20.2669919 L14.6996098,20.2669919 L14.6996098,21.6410154 L14.897852,21.6410154 Z M16.4769536,17.0199216 C15.9984379,17.0199216 15.6156254,16.8285154 15.3285161,16.4457029 C15.0414067,16.0628904 14.897852,15.5593096 14.897852,14.9349607 C14.897852,14.3333982 15.0402674,13.8355141 15.3250981,13.4413083 C15.6099288,13.0471026 15.991602,12.8499998 16.4701176,12.8499998 C16.9486333,12.8499998 17.3382817,13.073307 17.6390629,13.5199216 C17.9398442,13.9665362 18.0902348,14.5567055 18.0902348,15.2904294 L18.0902348,15.2904294 L18.0902348,15.9398435 C17.9307296,16.2770831 17.7051437,16.541406 17.413477,16.7328123 C17.1218103,16.9242185 16.8096359,17.0199216 16.4769536,17.0199216 Z" id="9" fill="#272727" fill-rule="nonzero"></path>
    </g>
</svg>