<svg xmlns="http://www.w3.org/2000/svg" width="14" height="14"><g fill="none" fill-rule="evenodd"><g transform="translate(0 .913)"><circle cx="6.543" cy="6.543" r="6.543" fill="#3FB55D"/><circle cx="6.543" cy="6.543" r="4.907" fill="#FFF"/><circle cx="6.543" cy="6.543" r="3.272" fill="#3FB55D"/><circle cx="6.543" cy="6.543" r="1.636" fill="#FFF"/></g><path fill="#FFF" fill-rule="nonzero" d="M13.999 1.082V2.53l-1.258 1.26a.6.6 0 0 1-.33.167l-.095.008h-1.682a.6.6 0 0 1-.592-.503l-.008-.097V1.682a.6.6 0 0 1 .114-.352l.062-.072L11.467.001 12.917 0v1.082h1.082z"/><path stroke="#FFF" stroke-linecap="square" stroke-width="2.4" d="M7.733 6.267 11.5 2.5"/><path stroke="#5A6166" stroke-linecap="round" stroke-width="1.2" d="m6.543 7.456 4.759-4.758"/><path fill="#5A6166" d="m14 1.682-1.682 1.683h-1.682l-.001-1.683L12.318 0v1.683z"/></g></svg>