<?xml version="1.0" encoding="UTF-8"?>
<svg width="21px" height="21px" viewBox="0 0 21 21" version="1.1" xmlns="http://www.w3.org/2000/svg" xmlns:xlink="http://www.w3.org/1999/xlink">
    <title>check</title>
    <g id="Page-1" stroke="none" stroke-width="1" fill="none" fill-rule="evenodd">
        <g id="Top-Country" transform="translate(-549.000000, -349.000000)" fill-rule="nonzero">
            <g id="check" transform="translate(549.000000, 349.000000)">
                <path d="M10.24,0 C4.59343752,0 0,4.59343752 0,10.24 C0,15.8865625 4.59343752,20.48 10.24,20.48 C15.8865625,20.48 20.48,15.8865625 20.48,10.24 C20.48,4.59343752 15.8865625,0 10.24,0 Z" id="Path" fill="#3FB55D"></path>
                <path d="M15.43,8.07 L9.88328124,13.6165625 C9.716875,13.7829688 9.49843752,13.8667188 9.28,13.8667188 C9.06156248,13.8667188 8.843125,13.7829688 8.67671876,13.6165625 L5.90343752,10.8432812 C5.56968752,10.5096875 5.56968752,9.97031248 5.90343752,9.63671876 C6.23703124,9.30296876 6.77625,9.30296876 7.11,9.63671876 L9.28,11.8067188 L14.2234375,6.86343752 C14.5570312,6.52968752 15.09625,6.52968752 15.43,6.86343752 C15.7635938,7.19703124 15.7635938,7.73625 15.43,8.07 Z" id="Path" fill="#FAFAFA"></path>
            </g>
        </g>
    </g>
</svg>