<svg id="Layer_1" data-name="Layer 1" xmlns="http://www.w3.org/2000/svg" viewBox="0 0 20.08 13.42"><defs><style>.cls-1{fill:#231f20;}.cls-2{fill:#039;}.cls-3{fill:#fc0;}</style></defs><title>Flags [Convertido]</title><path class="cls-1" d="M0,13.42V0H20.08V13.42Zm20-.05v0Zm-20,0H20V.08H.08Z"/><rect class="cls-2" x="0.04" y="0.04" width="20" height="13.33"/><polygon class="cls-3" points="10.04 1.67 10.19 2.13 10.67 2.13 10.28 2.41 10.43 2.87 10.04 2.58 9.65 2.87 9.8 2.41 9.41 2.13 9.89 2.13 10.04 1.67"/><polygon class="cls-3" points="7.8 2.27 7.95 2.73 8.43 2.72 8.04 3.01 8.19 3.46 7.8 3.18 7.41 3.47 7.56 3.01 7.17 2.73 7.65 2.73 7.8 2.27"/><polygon class="cls-3" points="6.15 3.91 6.3 4.37 6.78 4.37 6.39 4.65 6.54 5.11 6.15 4.82 5.76 5.11 5.91 4.65 5.52 4.37 6 4.37 6.15 3.91"/><polygon class="cls-3" points="12.28 2.27 12.43 2.73 12.91 2.73 12.53 3.02 12.68 3.47 12.29 3.19 11.9 3.47 12.04 3.02 11.65 2.73 12.14 2.73 12.28 2.27"/><polygon class="cls-3" points="14.49 4.33 14.1 4.61 14.25 5.07 13.86 4.79 13.47 5.07 13.62 4.61 13.23 4.33 13.71 4.33 13.86 3.87 14.01 4.33 14.49 4.33"/><polygon class="cls-3" points="15.11 6.58 14.72 6.87 14.87 7.32 14.48 7.04 14.09 7.32 14.24 6.86 13.85 6.58 14.33 6.58 14.48 6.12 14.63 6.58 15.11 6.58"/><polygon class="cls-3" points="14.29 9.49 13.9 9.2 13.51 9.49 13.66 9.03 13.27 8.75 13.75 8.75 13.89 8.29 14.04 8.75 14.53 8.74 14.14 9.03 14.29 9.49"/><polygon class="cls-3" points="9.69 11.74 9.84 11.29 9.45 11 9.93 11 10.08 10.54 10.23 11 10.71 11 10.32 11.29 10.47 11.74 10.08 11.46 9.69 11.74"/><polygon class="cls-3" points="7.44 11.15 7.59 10.69 7.2 10.41 7.68 10.41 7.83 9.95 7.98 10.41 8.46 10.41 8.07 10.69 8.22 11.15 7.83 10.87 7.44 11.15"/><polygon class="cls-3" points="12.64 11.14 12.26 10.85 11.86 11.14 12.02 10.68 11.63 10.39 12.11 10.39 12.26 9.94 12.4 10.4 12.89 10.4 12.5 10.68 12.64 11.14"/><polygon class="cls-3" points="4.97 6.59 5.46 6.59 5.6 6.13 5.75 6.59 6.24 6.59 5.85 6.87 6 7.33 5.61 7.05 5.22 7.33 5.37 6.88 4.97 6.59"/><polygon class="cls-3" points="5.8 9.48 5.95 9.03 5.56 8.74 6.04 8.74 6.19 8.29 6.34 8.74 6.82 8.74 6.43 9.03 6.58 9.48 6.19 9.2 5.8 9.48"/></svg>