<?xml version="1.0" encoding="UTF-8"?>
<svg width="23px" height="13px" viewBox="0 0 23 13" version="1.1" xmlns="http://www.w3.org/2000/svg" xmlns:xlink="http://www.w3.org/1999/xlink">
    <title>EUROPE</title>
    <g id="EUROPE" stroke="none" stroke-width="1" fill="none" fill-rule="evenodd">
        <g id="Europe-Copy" fill-rule="nonzero">
            <rect id="Rectangle" fill="#314199" x="0" y="0" width="22.32" height="12.96"></rect>
            <g id="Group" transform="translate(6.480000, 1.740000)" fill="#F8EC26">
                <polygon id="Path" points="4.65247059 8.13185455 4.80388235 8.59418182 5.26362353 8.59418182 4.93602353 8.84661818 5.02687059 9.34298182 4.65247059 9.06218182 4.27807059 9.33447273 4.36891765 8.84661818 4.04407059 8.59134545 4.50381176 8.59134545"></polygon>
                <polygon id="Path" points="4.65247059 0.133309091 4.80388235 0.5928 5.26362353 0.5928 4.93602353 0.848072727 5.02687059 1.3416 4.65247059 1.0608 4.27807059 1.33309091 4.36891765 0.848072727 4.04407059 0.589963636 4.50381176 0.589963636"></polygon>
                <polygon id="Path" points="6.52447059 0.646690909 6.67312941 1.10618182 7.13287059 1.10618182 6.80802353 1.36145455 6.89611765 1.85498182 6.52447059 1.57418182 6.14731765 1.84930909 6.23816471 1.36145455 5.91607059 1.10618182 6.37581176 1.10618182"></polygon>
                <polygon id="Path" points="2.69237647 0.646690909 2.84378824 1.10618182 3.30352941 1.10618182 2.97592941 1.36145455 3.06677647 1.85498182 2.69237647 1.57418182 2.31522353 1.84930909 2.40882353 1.36145455 2.08397647 1.10618182 2.54371765 1.10618182"></polygon>
                <polygon id="Path" points="6.52447059 7.59294545 6.67312941 8.05243636 7.13287059 8.05243636 6.80802353 8.30770909 6.89611765 8.80123636 6.52447059 8.52043636 6.14731765 8.79272727 6.23816471 8.30770909 5.91607059 8.0496 6.37581176 8.0496"></polygon>
                <polygon id="Path" points="2.69237647 7.59294545 2.84378824 8.05243636 3.30352941 8.05243636 2.97592941 8.30770909 3.06677647 8.80123636 2.69237647 8.52043636 2.31522353 8.79272727 2.40882353 8.30770909 2.08397647 8.0496 2.54371765 8.0496"></polygon>
                <polygon id="Path" points="1.26084706 2.15563636 1.40950588 2.61796364 1.86924706 2.61796364 1.5444 2.8704 1.63249412 3.36676364 1.26084706 3.08596364 0.883694118 3.35825455 0.974541176 2.8704 0.652447059 2.61512727 1.11218824 2.61512727"></polygon>
                <polygon id="Path" points="8.0028 2.15563636 8.15421176 2.61796364 8.61395294 2.61796364 8.28635294 2.8704 8.3772 3.36676364 8.0028 3.08596364 7.6284 3.35825455 7.71924706 2.8704 7.3944 2.61512727 7.85414118 2.61512727"></polygon>
                <polygon id="Path" points="1.26084706 6.14923636 1.40950588 6.61156364 1.86924706 6.60872727 1.5444 6.864 1.63249412 7.36036364 1.26084706 7.07956364 0.883694118 7.35185455 0.974541176 6.864 0.652447059 6.60872727 1.11218824 6.60872727"></polygon>
                <polygon id="Path" points="8.0028 6.14923636 8.15421176 6.61156364 8.61395294 6.60872727 8.28635294 6.864 8.3772 7.36036364 8.0028 7.07956364 7.6284 7.35185455 7.71924706 6.864 7.3944 6.60872727 7.85414118 6.60872727"></polygon>
                <polygon id="Path" points="0.814870588 4.13825455 0.966282353 4.59774545 1.42602353 4.59774545 1.09842353 4.85301818 1.18927059 5.34654545 0.814870588 5.06574545 0.437717647 5.34087273 0.528564706 4.85301818 0.206470588 4.59774545 0.666211765 4.59774545"></polygon>
                <polygon id="Path" points="8.49557647 4.13825455 8.64698824 4.59774545 9.10672941 4.59774545 8.78188235 4.85301818 8.86997647 5.34654545 8.49557647 5.06574545 8.12117647 5.34087273 8.21202353 4.85301818 7.88717647 4.59774545 8.34691765 4.59774545"></polygon>
            </g>
        </g>
    </g>
</svg>