<?xml version="1.0" encoding="UTF-8"?>
<svg width="36px" height="36px" viewBox="0 0 36 36" version="1.1" xmlns="http://www.w3.org/2000/svg" xmlns:xlink="http://www.w3.org/1999/xlink">
    <title>Facebook - normal</title>
    <g id="Facebook---normal" stroke="none" stroke-width="1" fill="none" fill-rule="evenodd">
        <g id="Group-3" transform="translate(1.000000, 1.000000)">
            <path d="M33.935,16.968 C33.935,26.339 26.338,33.936 16.967,33.936 C7.597,33.936 1.98951966e-13,26.339 1.98951966e-13,16.968 C1.98951966e-13,7.597 7.597,-3.55271368e-14 16.967,-3.55271368e-14 C26.338,-3.55271368e-14 33.935,7.597 33.935,16.968 Z" id="Stroke-11" stroke="#FFFFFF"></path>
            <path d="M14.6479,26.1701 L18.3539,26.1701 L18.3539,16.8901 L20.9399,16.8901 L21.2149,13.7821 L18.3539,13.7821 L18.3539,12.0131 C18.3539,11.2791 18.5009,10.9901 19.2099,10.9901 L21.2149,10.9901 L21.2149,7.7661 L18.6489,7.7661 C15.8909,7.7661 14.6479,8.9801 14.6479,11.3051 L14.6479,13.7821 L12.7199,13.7821 L12.7199,16.9291 L14.6479,16.9291 L14.6479,26.1701 Z" id="Fill-13" fill="#FFFFFF"></path>
        </g>
    </g>
</svg>