<?xml version="1.0" encoding="utf-8"?>
<svg width="32px" height="32px" viewBox="0 0 32 32" version="1.1" xmlns:xlink="http://www.w3.org/1999/xlink" xmlns="http://www.w3.org/2000/svg">
  <g id="Group">
    <path d="M15.75 31.5C24.4485 31.5 31.5 24.4485 31.5 15.75C31.5 7.05152 24.4485 0 15.75 0C7.05152 0 0 7.05152 0 15.75C0 24.4485 7.05152 31.5 15.75 31.5Z" id="Oval" fill="#727272" fill-rule="evenodd" stroke="none" />
    <g id="usuario" transform="translate(6.2998047 5.4003906)">
      <path d="M5.4 0C2.42881 0 0 2.42881 0 5.4C0 8.37119 2.42881 10.8 5.4 10.8C8.37119 10.8 10.8 8.37119 10.8 5.4C10.8 2.42881 8.37119 0 5.4 0Z" transform="translate(3.5996094 0)" id="Path" fill="#F3F8FF" fill-opacity="0.7490196" stroke="none" />
      <path d="M18.8596 4.04673C18.716 3.68241 18.5245 3.3424 18.309 3.02665C17.2078 1.37508 15.5081 0.282155 13.593 0.0149905C13.3536 -0.00927606 13.0903 0.0392571 12.8988 0.184996C11.8933 0.937911 10.6964 1.3265 9.45148 1.3265C8.20661 1.3265 7.00966 0.937911 6.00421 0.184996C5.81267 0.0392571 5.54934 -0.0335891 5.30997 0.0149905C3.39482 0.282155 1.67121 1.37508 0.593948 3.02665C0.378497 3.3424 0.186964 3.70672 0.0433596 4.04673C-0.0284424 4.19247 -0.00452371 4.36248 0.0672783 4.50821C0.258811 4.84823 0.498182 5.18828 0.713634 5.47971C1.04877 5.9412 1.40787 6.35406 1.81486 6.74265C2.14999 7.08266 2.53301 7.3984 2.91608 7.71415C4.80726 9.14713 7.08151 9.9 9.42756 9.9C11.7736 9.9 14.0479 9.14709 15.939 7.71415C16.3221 7.42272 16.7051 7.08266 17.0403 6.74265C17.4233 6.35406 17.8063 5.94115 18.1415 5.47971C18.3809 5.16397 18.5964 4.84823 18.7878 4.50821C18.9075 4.36248 18.9314 4.19242 18.8596 4.04673Z" transform="translate(0 11.700195)" id="Path" fill="#F3F8FF" fill-opacity="0.7490196" stroke="none" />
    </g>
  </g>
</svg>