<?xml version="1.0" encoding="UTF-8"?>
<svg width="14px" height="14px" viewBox="0 0 14 14" version="1.1" xmlns="http://www.w3.org/2000/svg" xmlns:xlink="http://www.w3.org/1999/xlink">
    <title>ico-info-white</title>
    <g id="Page-1" stroke="none" stroke-width="1" fill="none" fill-rule="evenodd">
        <g id="3-Lista-Stock-Europe-Copy-3" transform="translate(-685.000000, -348.000000)" fill="#FFFFFF" fill-rule="nonzero">
            <g id="Group-13" transform="translate(245.000000, 325.000000)">
                <g id="Group-11" transform="translate(398.000000, 8.000000)">
                    <g id="info-ico" transform="translate(42.000000, 15.000000)">
                        <g id="Shape" transform="translate(0.140760, 0.140760)">
                            <path d="M6.47496,-4.44977388e-13 C2.90088,-4.44977388e-13 -4.44977388e-13,2.90088 -4.44977388e-13,6.47496 C-4.44977388e-13,10.04904 2.90088,12.94992 6.47496,12.94992 C10.04904,12.94992 12.94992,10.04904 12.94992,6.47496 C12.94992,2.90088 10.05516,-4.44977388e-13 6.47496,-4.44977388e-13 Z M6.30972,2.77236 C6.49332,2.53368 6.72588,2.38068 7.00128,2.31336 C7.2828,2.24604 7.53372,2.28276 7.74792,2.42964 C7.96824,2.57652 8.09064,2.77848 8.11512,3.04776 C8.1396,3.31704 8.06616,3.56796 7.88256,3.80664 C7.69896,4.04532 7.47252,4.1922 7.191,4.25952 C6.90948,4.32684 6.65856,4.29012 6.43824,4.14324 C6.21792,4.00248 6.09552,3.7944 6.07104,3.52512 C6.05268,3.26808 6.13224,3.01104 6.30972,2.77236 Z M8.0478,9.62064 C7.69284,9.92664 6.67692,10.56312 6.38928,10.6182 C5.94864,10.71 5.61204,10.6794 5.37336,10.5264 C5.13468,10.3734 5.02452,10.14696 5.03676,9.84096 C5.04288,9.71856 5.05512,9.59616 5.07348,9.46764 C5.09796,9.33912 5.12856,9.19224 5.17752,9.027 L5.68548,7.44192 C5.72832,7.28892 5.77116,7.14816 5.80176,7.01352 C6.00984,6.32808 5.202,6.8238 5.0796,6.885 C4.47372,7.24608 4.43088,6.885 4.79808,6.5178 C5.24484,6.07104 6.1506,5.47128 6.78708,5.34888 C7.52148,5.20812 7.75404,5.9058 7.64388,6.46272 C7.6194,6.62796 7.5888,6.78708 7.53984,6.93396 L7.038,8.51904 C6.99516,8.64756 6.95844,8.78832 6.92172,8.94744 C6.76872,9.70632 7.48476,9.20448 7.87644,9.03924 C8.40276,8.80056 8.45784,9.2718 8.0478,9.62064 Z"></path>
                        </g>
                    </g>
                </g>
            </g>
        </g>
    </g>
</svg>