<?xml version="1.0" encoding="UTF-8"?>
<svg width="36px" height="36px" viewBox="0 0 36 36" version="1.1" xmlns="http://www.w3.org/2000/svg" xmlns:xlink="http://www.w3.org/1999/xlink">
    <title>LinkeIn - normal</title>
    <g id="LinkeIn---normal" stroke="none" stroke-width="1" fill="none" fill-rule="evenodd">
        <g id="Group" transform="translate(1.000000, 1.000000)">
            <path d="M33.935,16.968 C33.935,26.339 26.338,33.936 16.967,33.936 C7.597,33.936 -2.55795385e-13,26.339 -2.55795385e-13,16.968 C-2.55795385e-13,7.597 7.597,-3.55271368e-14 16.967,-3.55271368e-14 C26.338,-3.55271368e-14 33.935,7.597 33.935,16.968 Z" id="Stroke-1" stroke="#FFFFFF"></path>
            <path d="M11.4316,8.01 C12.4946,8.01 13.3556,8.873 13.3556,9.935 C13.3556,10.999 12.4946,11.862 11.4316,11.862 C10.3656,11.862 9.5056,10.999 9.5056,9.935 C9.5056,8.873 10.3656,8.01 11.4316,8.01 L11.4316,8.01 Z M9.7686,24.006 L13.0926,24.006 L13.0926,13.322 L9.7686,13.322 L9.7686,24.006 Z" id="Fill-3" fill="#FFFFFF"></path>
            <path d="M15.1767,13.3225 L18.3597,13.3225 L18.3597,14.7815 L18.4047,14.7815 C18.8477,13.9415 19.9317,13.0555 21.5477,13.0555 C24.9067,13.0555 25.5277,15.2675 25.5277,18.1455 L25.5277,24.0065 L22.2107,24.0065 L22.2107,18.8105 C22.2107,17.5715 22.1867,15.9775 20.4847,15.9775 C18.7567,15.9775 18.4927,17.3275 18.4927,18.7205 L18.4927,24.0065 L15.1767,24.0065 L15.1767,13.3225 Z" id="Fill-5" fill="#FFFFFF"></path>
        </g>
    </g>
</svg>