<?xml version="1.0" encoding="UTF-8"?>
<svg width="139px" height="43px" viewBox="0 0 139 43" version="1.1" xmlns="http://www.w3.org/2000/svg" xmlns:xlink="http://www.w3.org/1999/xlink">
    <title>logo Danelfin</title>
    <defs>
        <polygon id="path-1" points="0 0.559975 29.09361 0.559975 29.09361 26.354575 0 26.354575"></polygon>
    </defs>
    <g id="Symbols" stroke="none" stroke-width="1" fill="none" fill-rule="evenodd">
        <g id="Menu-Log-In" transform="translate(-120.000000, -10.000000)">
            <g id="Group-7" transform="translate(120.000000, 10.000000)">
                <g id="Group-6">
                    <g id="Group-3">
                        <mask id="mask-2" fill="white">
                            <use xlink:href="#path-1"></use>
                        </mask>
                        <g id="Clip-2"></g>
                        <path d="M19.83436,24.117925 C19.83436,23.639525 20.22306,23.250825 20.70146,23.250825 C21.18051,23.250825 21.56856,23.639525 21.56856,24.117925 C21.56856,24.596325 21.18051,24.985025 20.70146,24.985025 C20.22306,24.985025 19.83436,24.596325 19.83436,24.117925 L19.83436,24.117925 Z M19.83436,2.796625 C19.83436,2.318225 20.22306,1.929525 20.70146,1.929525 C21.18051,1.929525 21.56856,2.318225 21.56856,2.796625 C21.56856,3.276325 21.18051,3.663725 20.70146,3.663725 C20.22306,3.663725 19.83436,3.276325 19.83436,2.796625 L19.83436,2.796625 Z M1.37046,13.457925 C1.37046,12.978225 1.75786,12.590825 2.23756,12.590825 C2.71596,12.590825 3.10401,12.978225 3.10401,13.457925 C3.10401,13.936325 2.71596,14.325025 2.23756,14.325025 C1.75786,14.325025 1.37046,13.936325 1.37046,13.457925 L1.37046,13.457925 Z M25.98921,13.457925 C25.98921,12.978225 26.37726,12.590825 26.85631,12.590825 C27.33536,12.590825 27.72341,12.978225 27.72341,13.457925 C27.72341,13.936325 27.33536,14.325025 26.85631,14.325025 C26.37726,14.325025 25.98921,13.936325 25.98921,13.457925 L25.98921,13.457925 Z M7.52531,24.117925 C7.52531,23.639525 7.91271,23.250825 8.39176,23.250825 C8.87081,23.250825 9.25886,23.639525 9.25886,24.117925 C9.25886,24.596325 8.87081,24.985025 8.39176,24.985025 C7.91271,24.985025 7.52531,24.596325 7.52531,24.117925 L7.52531,24.117925 Z M7.52531,2.796625 C7.52531,2.318225 7.91271,1.929525 8.39176,1.929525 C8.87081,1.929525 9.25886,2.318225 9.25886,2.796625 C9.25886,3.276325 8.87081,3.663725 8.39176,3.663725 C7.91271,3.663725 7.52531,3.276325 7.52531,2.796625 L7.52531,2.796625 Z M13.67951,13.457925 C13.67951,12.978225 14.06821,12.590825 14.54661,12.590825 C15.02566,12.590825 15.41371,12.978225 15.41371,13.457925 C15.41371,13.936325 15.02566,14.325025 14.54661,14.325025 C14.06821,14.325025 13.67951,13.936325 13.67951,13.457925 L13.67951,13.457925 Z M3.95551,12.025325 C4.27921,12.413375 4.47421,12.912575 4.47421,13.457925 C4.47421,14.001975 4.27921,14.501175 3.95551,14.889875 L8.01151,21.913125 C8.13501,21.891675 8.26176,21.881275 8.39176,21.881275 C8.52111,21.881275 8.64786,21.891675 8.77071,21.912475 L12.82736,14.887925 C12.50431,14.500525 12.30996,14.001975 12.30996,13.457925 C12.30996,12.913225 12.50431,12.414675 12.82736,12.026625 L9.00666,5.409625 L8.77071,5.002075 C8.64786,5.022875 8.52111,5.034575 8.39176,5.034575 C8.26176,5.034575 8.13501,5.022875 8.01151,5.001425 L3.95551,12.025325 Z M21.08236,5.001425 C20.95821,5.022875 20.83146,5.034575 20.70146,5.034575 C19.73946,5.034575 18.91851,4.425525 18.60261,3.572725 L10.49061,3.572725 C10.40156,3.813225 10.27286,4.034875 10.11166,4.227275 L14.16766,11.252475 C14.29116,11.231675 14.41726,11.219975 14.54661,11.219975 C15.50991,11.219975 16.32956,11.829025 16.64546,12.681175 L24.75746,12.681175 C24.84651,12.440675 24.97586,12.219025 25.13771,12.025325 L21.08236,5.001425 Z M22.42071,22.685975 C22.74441,23.074025 22.93876,23.573225 22.93876,24.117925 C22.93876,25.352925 21.93711,26.354575 20.70146,26.354575 C19.73946,26.354575 18.91851,25.746825 18.60261,24.893375 L10.49061,24.893375 C10.17536,25.746825 9.35441,26.354575 8.39176,26.354575 C7.15611,26.354575 6.15446,25.352925 6.15446,24.117925 C6.15446,23.573225 6.34946,23.074025 6.67316,22.685975 L2.61846,15.662075 C2.49431,15.682875 2.36691,15.694575 2.23756,15.694575 C1.00126,15.694575 -0.00039,14.692925 -0.00039,13.457925 C-0.00039,12.221625 1.00126,11.219975 2.23756,11.219975 C2.36691,11.219975 2.49431,11.231675 2.61846,11.253125 L6.67316,4.228575 C6.34946,3.841175 6.15446,3.341325 6.15446,2.796625 C6.15446,1.561625 7.15611,0.559975 8.39176,0.559975 C9.35441,0.559975 10.17536,1.167725 10.49061,2.021175 L18.60261,2.021175 C18.91851,1.167725 19.73946,0.559975 20.70146,0.559975 C21.93711,0.559975 22.93876,1.561625 22.93876,2.796625 C22.93876,3.341325 22.74441,3.841175 22.42071,4.228575 L26.47541,11.253125 C26.59891,11.231675 26.72696,11.219975 26.85631,11.219975 C28.09196,11.219975 29.09361,12.221625 29.09361,13.457925 C29.09361,14.692925 28.09196,15.694575 26.85631,15.694575 C26.72696,15.694575 26.59891,15.682875 26.47541,15.662075 L22.42071,22.685975 Z M24.75746,14.233375 L16.64546,14.233375 C16.32956,15.086175 15.50991,15.694575 14.54661,15.694575 C14.41726,15.694575 14.29116,15.682875 14.16766,15.662075 L10.11166,22.687275 C10.27286,22.880975 10.40156,23.101975 10.49061,23.342475 L18.60261,23.342475 C18.91851,22.489025 19.73946,21.881275 20.70146,21.881275 C20.83146,21.881275 20.95821,21.891675 21.08236,21.913125 L25.13771,14.889875 C24.97586,14.695525 24.84651,14.474525 24.75746,14.233375 L24.75746,14.233375 Z" id="Fill-1" fill="#FFFFFF" mask="url(#mask-2)"></path>
                    </g>
                    <path d="M45.579235,19.903715 C45.160635,20.675915 44.580835,21.291465 43.855435,21.732165 C43.130685,22.172215 42.292185,22.395165 41.362035,22.395165 C40.431885,22.395165 39.592735,22.172215 38.869285,21.732165 C38.143885,21.291465 37.563435,20.675915 37.144185,19.903715 C36.724935,19.128265 36.512385,18.236465 36.512385,17.253665 C36.512385,16.261115 36.724935,15.367365 37.144185,14.596465 C37.563435,13.828165 38.143885,13.215865 38.869285,12.774515 C39.592735,12.334465 40.431885,12.111515 41.362035,12.111515 C42.292185,12.111515 43.130685,12.334465 43.855435,12.774515 C44.580835,13.215865 45.160635,13.828165 45.579235,14.596465 C45.999135,15.367365 46.212335,16.261115 46.212335,17.253665 C46.212335,18.236465 45.999135,19.128265 45.579235,19.903715 L45.579235,19.903715 Z M46.212335,1.809665 L46.212335,11.252215 C45.633185,10.740665 44.966935,10.323365 44.223335,10.006165 C43.280185,9.605115 42.243435,9.401665 41.142985,9.401665 C39.690885,9.401665 38.372035,9.745515 37.222185,10.422815 C36.072985,11.100765 35.157135,12.041965 34.498685,13.221715 C33.842835,14.398865 33.510685,15.755415 33.510685,17.253665 C33.510685,18.751915 33.842835,20.107815 34.499335,21.285615 C35.156485,22.464065 36.072985,23.405915 37.222185,24.083865 C38.372035,24.761815 39.690885,25.105015 41.142985,25.105015 C42.273985,25.105015 43.336085,24.889215 44.299385,24.462815 C45.074185,24.119615 45.761885,23.669165 46.352085,23.119265 L46.461285,24.813165 L49.140585,24.813165 L49.140585,1.809665 L46.212335,1.809665 Z" id="Fill-4" fill="#FFFFFF"></path>
                    <path d="M81.160365,24.81297 L78.231465,24.81297 L78.231465,16.61127 C78.231465,15.26187 77.867465,14.15947 77.149215,13.33657 C76.430965,12.51237 75.517715,12.11132 74.359415,12.11132 C73.585915,12.11132 72.885215,12.30242 72.277465,12.67812 C71.667115,13.05707 71.177015,13.57707 70.820815,14.22512 C70.464615,14.87447 70.283915,15.62782 70.283915,16.46502 L70.283915,24.81297 L67.355015,24.81297 L67.355015,9.69332 L70.034965,9.69332 L70.141565,11.48732 C70.651815,10.91727 71.246565,10.45057 71.916715,10.09567 C72.788365,9.63482 73.772465,9.40147 74.841065,9.40147 C76.063065,9.40147 77.163515,9.70242 78.111215,10.29522 C79.056315,10.88672 79.809665,11.71417 80.350465,12.75352 C80.888015,13.78897 81.160365,14.98887 81.160365,16.31942 L81.160365,24.81297 Z" id="Fill-6" fill="#FFFFFF"></path>
                    <path d="M86.540025,15.91291 C86.777925,14.85731 87.298575,13.96811 88.089625,13.26481 C88.951525,12.49976 90.008425,12.11106 91.231075,12.11106 C92.433575,12.11106 93.465125,12.49391 94.297775,13.24856 C95.064125,13.94406 95.571125,14.83911 95.807075,15.91291 L86.540025,15.91291 Z M98.893275,17.23891 C98.893275,15.73091 98.563075,14.37176 97.911125,13.19981 C97.258525,12.02526 96.347225,11.08861 95.202575,10.41586 C94.057275,9.74311 92.726075,9.40121 91.245375,9.40121 C89.766625,9.40121 88.421775,9.74246 87.247875,10.41391 C86.073325,11.08666 85.137325,12.02071 84.465225,13.18941 C83.792475,14.35811 83.452525,15.70101 83.452525,17.18041 C83.452525,18.70076 83.815875,20.07681 84.532825,21.27086 C85.251075,22.46426 86.254675,23.41261 87.516975,24.08861 C88.775375,24.76331 90.232025,25.10521 91.844025,25.10521 C92.848275,25.10521 93.903875,24.93426 94.980925,24.59691 C96.064475,24.25761 97.162975,23.62711 98.245225,22.72361 L98.438275,22.56176 L96.691075,20.32836 L96.483725,20.52466 C95.792775,21.17791 95.018625,21.65696 94.182075,21.95011 C91.825825,22.77496 89.781575,22.43631 88.294375,21.20651 C87.420125,20.48501 86.843575,19.56786 86.575125,18.47651 L98.893275,18.47651 L98.893275,17.23891 Z" id="Fill-8" fill="#FFFFFF"></path>
                    <polygon id="Fill-10" fill="#FFFFFF" points="101.4767 24.8131 104.4784 24.8131 104.4784 1.8096 101.4767 1.8096"></polygon>
                    <path d="M111.89633,24.81297 L108.96743,24.81297 L108.96743,12.40317 L106.55853,12.40317 L106.55853,9.69332 L108.96743,9.69332 L108.96743,7.20902 C108.96743,5.69842 109.40293,4.45822 110.26223,3.52157 C111.12673,2.57972 112.26228,2.10197 113.63638,2.10197 C114.23763,2.10197 114.79728,2.19297 115.30038,2.37237 C115.80023,2.55112 116.25133,2.79227 116.64133,3.08932 L116.80708,3.21607 L115.61368,5.78942 L115.35043,5.47872 C114.97018,5.02957 114.49048,4.81182 113.88468,4.81182 C113.30748,4.81182 112.84403,5.02567 112.46898,5.46507 C112.08873,5.91097 111.89633,6.49792 111.89633,7.20902 L111.89633,9.69332 L115.80933,9.69332 L115.80933,12.40317 L111.89633,12.40317 L111.89633,24.81297 Z" id="Fill-12" fill="#FFFFFF"></path>
                    <polygon id="Fill-13" fill="#FFFFFF" points="118.51775 24.8131 121.46095 24.8131 121.46095 9.69345 118.51775 9.69345"></polygon>
                    <path d="M119.9744,7.57146 C119.42775,7.57146 118.96495,7.38361 118.59965,7.01246 C118.235,6.64261 118.0504,6.17786 118.0504,5.63316 C118.0504,5.07676 118.23565,4.60941 118.6016,4.24411 C118.96625,3.87881 119.4284,3.69356 119.9744,3.69356 C120.5295,3.69356 120.99815,3.87816 121.3693,4.24281 C121.7398,4.60811 121.9283,5.07611 121.9283,5.63316 C121.9283,6.17851 121.74045,6.64326 121.36995,7.01376 C121.0001,7.38426 120.53015,7.57146 119.9744,7.57146" id="Fill-14" fill="#FFFFFF"></path>
                    <path d="M138.22263,24.81297 L135.29373,24.81297 L135.29373,16.61127 C135.29373,15.26187 134.92973,14.15947 134.21148,13.33657 C133.49323,12.51237 132.57998,12.11132 131.42168,12.11132 C130.64818,12.11132 129.94748,12.30242 129.33973,12.67812 C128.72938,13.05707 128.23928,13.57707 127.88308,14.22512 C127.52688,14.87447 127.34618,15.62782 127.34618,16.46502 L127.34618,24.81297 L124.41728,24.81297 L124.41728,9.69332 L127.09723,9.69332 L127.20383,11.48732 C127.71408,10.91727 128.30883,10.45057 128.97898,10.09567 C129.85063,9.63482 130.83473,9.40147 131.90333,9.40147 C133.12533,9.40147 134.22578,9.70242 135.17348,10.29522 C136.11858,10.88672 136.87193,11.71417 137.41273,12.75352 C137.95028,13.78897 138.22263,14.98887 138.22263,16.31942 L138.22263,24.81297 Z" id="Fill-15" fill="#FFFFFF"></path>
                    <path d="M61.76196,18.59676 C61.76196,19.30136 61.57476,19.94616 61.20556,20.51296 C60.83181,21.08626 60.31896,21.54776 59.68131,21.88576 C59.04106,22.22376 58.30591,22.39536 57.49601,22.39536 C56.61526,22.39536 55.90546,22.18801 55.38611,21.77916 C54.87846,21.38006 54.63146,20.86461 54.63146,20.20291 C54.63146,19.47361 54.94086,18.92176 55.57656,18.51681 C56.24151,18.09366 57.19181,17.87851 58.40081,17.87851 C59.53181,17.87851 60.66151,18.05141 61.76196,18.39266 L61.76196,18.59676 Z M62.94496,11.18806 C61.78471,10.00246 60.21691,9.40186 58.28381,9.40186 C57.35041,9.40186 56.46251,9.51496 55.64611,9.73921 C54.83426,9.96216 53.91776,10.33981 52.92196,10.86241 L52.70811,10.97421 L53.79621,13.47606 L54.04776,13.33306 C55.47061,12.52251 56.80246,12.11106 58.00691,12.11106 C59.17561,12.11106 60.10316,12.44451 60.76551,13.10166 C61.39341,13.72566 61.72686,14.59081 61.75936,15.67566 C60.59001,15.33896 59.38881,15.16866 58.18176,15.16866 C56.20576,15.16866 54.60806,15.62106 53.43351,16.51351 C52.23686,17.42221 51.62976,18.66371 51.62976,20.20291 C51.62976,21.65696 52.15821,22.85296 53.20081,23.75646 C54.23301,24.65151 55.58956,25.10521 57.23276,25.10521 C58.36896,25.10521 59.38686,24.87706 60.25786,24.42661 C60.90526,24.09186 61.45776,23.65571 61.90821,23.12466 L62.01091,24.81271 L64.69086,24.81271 L64.69086,15.93956 C64.69086,13.97071 64.10391,12.37171 62.94496,11.18806 L62.94496,11.18806 Z" id="Fill-16" fill="#FFFFFF"></path>
                </g>
                <path d="M5.63883704,41.1051329 C6.33972338,41.1051329 6.88115807,40.9526902 7.26314112,40.6478046 C7.64512417,40.3429191 7.8361157,39.9101218 7.8361157,39.3494127 C7.8361157,38.8027213 7.67140741,38.4137294 7.34199083,38.1824369 C7.01257426,37.9511445 6.49041394,37.7794273 5.77550988,37.6672855 C5.34096035,37.590188 5.04308366,37.5025772 4.8818798,37.4044531 C4.72067595,37.306329 4.64007402,37.1591429 4.64007402,36.9628947 C4.64007402,36.7666465 4.71717152,36.6089471 4.87136651,36.4897964 C5.0255615,36.3706458 5.23933183,36.3110704 5.5126775,36.3110704 C5.80704976,36.3110704 6.02958118,36.3706458 6.18027174,36.4897964 C6.3309623,36.6089471 6.43434303,36.794682 6.49041394,37.0470011 L6.49041394,37.0470011 L7.66790298,37.0470011 C7.5487523,35.9396007 6.83034381,35.3859005 5.5126775,35.3859005 C4.95196844,35.3859005 4.46835687,35.5313344 4.06184279,35.8222022 C3.65532872,36.11307 3.45207168,36.5178319 3.45207168,37.0364878 C3.45207168,37.5481348 3.59925782,37.9248612 3.89363007,38.166667 C4.18800233,38.4084728 4.70315379,38.588951 5.43908444,38.7081017 C5.8666251,38.7781903 6.16975844,38.8675533 6.34848446,38.9761907 C6.52721047,39.0848281 6.61657348,39.2477842 6.61657348,39.4650589 C6.61657348,39.9346528 6.2871569,40.1694497 5.62832375,40.1694497 C5.27087172,40.1694497 5.00803935,40.0958566 4.83982662,39.9486705 C4.6716139,39.8014844 4.56998539,39.5807052 4.53494107,39.2863329 L4.53494107,39.2863329 L3.33642544,39.2863329 C3.36446089,39.8680686 3.57823123,40.3166358 3.97773643,40.6320347 C4.37724164,40.9474335 4.93094185,41.1051329 5.63883704,41.1051329 Z M10.2226337,41 L10.2226337,37.7093387 C10.2226337,37.3098335 10.3400321,36.9996913 10.574829,36.7789121 C10.809626,36.5581329 11.0952371,36.4477433 11.4316626,36.4477433 C12.0834869,36.4477433 12.409399,36.8332307 12.409399,37.6042057 L12.409399,37.6042057 L12.409399,41 L13.6815077,41 L13.6815077,37.7093387 C13.6815077,37.3098335 13.7989062,36.9996913 14.0337031,36.7789121 C14.2685,36.5581329 14.5541112,36.4477433 14.8905366,36.4477433 C15.5423609,36.4477433 15.8682731,36.8332307 15.8682731,37.6042057 L15.8682731,37.6042057 L15.8682731,41 L17.1403818,41 L17.1403818,37.5200994 C17.1403818,36.8051953 16.9704168,36.2707695 16.630487,35.9168219 C16.2905571,35.5628743 15.8507509,35.3859005 15.3110684,35.3859005 C14.9466076,35.3859005 14.5961644,35.4700068 14.2597389,35.6382196 C13.9233135,35.8064323 13.6534723,36.0517425 13.4502152,36.3741502 C13.1838784,35.715317 12.6652225,35.3859005 11.8942476,35.3859005 C11.5087601,35.3859005 11.1688302,35.4770157 10.874458,35.6592461 C10.5800857,35.8414766 10.3628109,36.0692646 10.2226337,36.3426103 L10.2226337,36.3426103 L10.2226337,35.5015467 L8.95052497,35.5015467 L8.95052497,41 L10.2226337,41 Z M20.0420512,41.1051329 C20.770973,41.1051329 21.331682,40.845805 21.7241784,40.3271491 L21.7241784,40.3271491 L21.7241784,41 L22.9752605,41 L22.9752605,37.3939398 C22.9752605,36.0552469 22.2428343,35.3859005 20.7779818,35.3859005 C20.1191487,35.3859005 19.5742096,35.536591 19.1431645,35.8379722 C18.7121194,36.1393533 18.4720658,36.5949294 18.4230038,37.2047005 L18.4230038,37.2047005 L19.6530593,37.2047005 C19.716139,36.6299737 20.0665822,36.3426103 20.7043888,36.3426103 C21.0688497,36.3426103 21.3264254,36.4319733 21.477116,36.6106993 C21.6278065,36.7894254 21.7031518,37.0680277 21.7031518,37.4465063 L21.7031518,37.4465063 L21.7031518,37.7303653 L21.0197876,37.7303653 C20.1647063,37.7303653 19.4813421,37.8705425 18.9696951,38.1508971 C18.4580481,38.4312516 18.2022246,38.87281 18.2022246,39.4755722 C18.2022246,40.0222636 18.3739417,40.4305299 18.717376,40.7003711 C19.0608103,40.9702123 19.5023687,41.1051329 20.0420512,41.1051329 Z M20.3469367,40.1904763 C19.7581922,40.1904763 19.46382,39.9346528 19.46382,39.4230058 C19.46382,38.8272524 19.9929892,38.5293757 21.0513275,38.5293757 L21.0513275,38.5293757 L21.7031518,38.5293757 L21.7031518,39.076067 C21.7031518,39.4195013 21.5769923,39.6910948 21.3246732,39.8908474 C21.0723541,40.0906 20.746442,40.1904763 20.3469367,40.1904763 Z M25.7087172,41 L25.7087172,38.1403838 C25.7087172,37.5866836 25.8576555,37.1941872 26.1555322,36.9628947 C26.4534089,36.7316022 26.900224,36.6124516 27.4959774,36.6054427 L27.4959774,36.6054427 L27.4959774,35.4174404 C26.6689315,35.4244492 26.0731781,35.795919 25.7087172,36.5318496 L25.7087172,36.5318496 L25.7087172,35.5015467 L24.4366085,35.5015467 L24.4366085,41 L25.7087172,41 Z M30.5868861,41.0946197 C30.9163027,41.0946197 31.2036661,41.049062 31.4489763,40.9579468 L31.4489763,40.9579468 L31.4489763,39.9486705 C31.2807636,40.0187591 31.0740021,40.0538035 30.8286919,40.0538035 C30.4081601,40.0538035 30.1978942,39.8190065 30.1978942,39.3494127 L30.1978942,39.3494127 L30.1978942,36.4582566 L31.4069231,36.4582566 L31.4069231,35.5015467 L30.1978942,35.5015467 L30.1978942,34.2925178 L28.9257855,34.2925178 L28.9257855,35.5015467 L28.1898548,35.5015467 L28.1898548,36.4582566 L28.9257855,36.4582566 L28.9257855,39.4650589 C28.9257855,39.9907237 29.067715,40.3937333 29.3515739,40.6740879 C29.6354329,40.9544424 30.0472036,41.0946197 30.5868861,41.0946197 Z M35.7489139,34.5974033 C35.9591798,34.5974033 36.1379058,34.5273147 36.285092,34.3871374 C36.4322781,34.2469602 36.5058712,34.075243 36.5058712,33.871986 C36.5058712,33.6617201 36.4322781,33.4864985 36.285092,33.3463212 C36.1379058,33.206144 35.9591798,33.1360553 35.7489139,33.1360553 C35.538648,33.1360553 35.359922,33.206144 35.2127359,33.3463212 C35.0655498,33.4864985 34.9919567,33.6617201 34.9919567,33.871986 C34.9919567,34.075243 35.0655498,34.2469602 35.2127359,34.3871374 C35.359922,34.5273147 35.538648,34.5974033 35.7489139,34.5974033 Z M36.4007382,41 L36.4007382,35.5015467 L35.1286295,35.5015467 L35.1286295,41 L36.4007382,41 Z M39.2183013,41 L39.2183013,37.7619051 C39.2183013,37.3413733 39.3392042,37.0172134 39.58101,36.7894254 C39.8228157,36.5616373 40.1329579,36.4477433 40.5114366,36.4477433 C40.8899152,36.4477433 41.1667653,36.5458674 41.3419869,36.7421155 C41.5172084,36.9383637 41.6048192,37.2432493 41.6048192,37.6567722 L41.6048192,37.6567722 L41.6048192,41 L42.8769279,41 L42.8769279,37.5411259 C42.8769279,36.8122042 42.7087152,36.2707695 42.3722898,35.9168219 C42.0358643,35.5628743 41.5767838,35.3859005 40.9950481,35.3859005 C40.5675075,35.3859005 40.1995421,35.4787679 39.8911522,35.6645028 C39.5827622,35.8502377 39.3584785,36.0867868 39.2183013,36.3741502 L39.2183013,36.3741502 L39.2183013,35.5015467 L37.9461926,35.5015467 L37.9461926,41 L39.2183013,41 Z M47.050706,41 L49.0377188,35.5015467 L47.7866367,35.5015467 L46.3673419,39.6963514 L44.9270205,35.5015467 L43.5602921,35.5015467 L45.5683315,41 L47.050706,41 Z M51.9814414,41.1051329 C52.6893366,41.1051329 53.2640634,40.950938 53.7056218,40.642548 C54.1471802,40.334158 54.413517,39.8925996 54.5046322,39.3178728 L54.5046322,39.3178728 L53.2745767,39.3178728 C53.1764526,39.8785819 52.7559208,40.1589364 52.0129813,40.1589364 C51.5433874,40.1589364 51.1789266,40.0187591 50.9195986,39.7384046 C50.6602707,39.4580501 50.5200934,39.0550404 50.4990668,38.5293757 L50.4990668,38.5293757 L54.5256588,38.5293757 L54.5256588,38.1614103 C54.5256588,37.2362404 54.2785964,36.5423629 53.7844715,36.0797779 C53.2903466,35.617193 52.6718144,35.3859005 51.9288749,35.3859005 C51.1368734,35.3859005 50.4832969,35.6487328 49.9681454,36.1743976 C49.452994,36.7000623 49.1954182,37.3834265 49.1954182,38.2244901 L49.1954182,38.2244901 L49.1954182,38.3085965 C49.1954182,39.1636778 49.4547462,39.8435376 49.9734021,40.3481757 C50.4920579,40.8528139 51.1614044,41.1051329 51.9814414,41.1051329 Z M53.2640634,37.6777988 L50.5200934,37.6777988 C50.5831732,37.2502581 50.7391204,36.9155849 50.987935,36.6737791 C51.2367497,36.4319733 51.5503963,36.3110704 51.9288749,36.3110704 C52.7559208,36.3110704 53.2009836,36.7666465 53.2640634,37.6777988 L53.2640634,37.6777988 Z M57.6481074,41.1051329 C58.3489937,41.1051329 58.8904284,40.9526902 59.2724115,40.6478046 C59.6543945,40.3429191 59.8453861,39.9101218 59.8453861,39.3494127 C59.8453861,38.8027213 59.6806778,38.4137294 59.3512612,38.1824369 C59.0218446,37.9511445 58.4996843,37.7794273 57.7847802,37.6672855 C57.3502307,37.590188 57.052354,37.5025772 56.8911502,37.4044531 C56.7299463,37.306329 56.6493444,37.1591429 56.6493444,36.9628947 C56.6493444,36.7666465 56.7264419,36.6089471 56.8806369,36.4897964 C57.0348319,36.3706458 57.2486022,36.3110704 57.5219479,36.3110704 C57.8163201,36.3110704 58.0388515,36.3706458 58.1895421,36.4897964 C58.3402327,36.6089471 58.4436134,36.794682 58.4996843,37.0470011 L58.4996843,37.0470011 L59.6771733,37.0470011 C59.5580227,35.9396007 58.8396142,35.3859005 57.5219479,35.3859005 C56.9612388,35.3859005 56.4776272,35.5313344 56.0711132,35.8222022 C55.6645991,36.11307 55.461342,36.5178319 55.461342,37.0364878 C55.461342,37.5481348 55.6085282,37.9248612 55.9029004,38.166667 C56.1972727,38.4084728 56.7124242,38.588951 57.4483548,38.7081017 C57.8758955,38.7781903 58.1790288,38.8675533 58.3577548,38.9761907 C58.5364808,39.0848281 58.6258438,39.2477842 58.6258438,39.4650589 C58.6258438,39.9346528 58.2964273,40.1694497 57.6375941,40.1694497 C57.2801421,40.1694497 57.0173097,40.0958566 56.849097,39.9486705 C56.6808843,39.8014844 56.5792558,39.5807052 56.5442114,39.2863329 L56.5442114,39.2863329 L55.3456958,39.2863329 C55.3737313,39.8680686 55.5875016,40.3166358 55.9870068,40.6320347 C56.386512,40.9474335 56.9402122,41.1051329 57.6481074,41.1051329 Z M62.8311618,41.0946197 C63.1605784,41.0946197 63.4479418,41.049062 63.693252,40.9579468 L63.693252,40.9579468 L63.693252,39.9486705 C63.5250393,40.0187591 63.3182778,40.0538035 63.0729676,40.0538035 C62.6524358,40.0538035 62.4421699,39.8190065 62.4421699,39.3494127 L62.4421699,39.3494127 L62.4421699,36.4582566 L63.6511989,36.4582566 L63.6511989,35.5015467 L62.4421699,35.5015467 L62.4421699,34.2925178 L61.1700612,34.2925178 L61.1700612,35.5015467 L60.4341306,35.5015467 L60.4341306,36.4582566 L61.1700612,36.4582566 L61.1700612,39.4650589 C61.1700612,39.9907237 61.3119907,40.3937333 61.5958497,40.6740879 C61.8797086,40.9544424 62.2914794,41.0946197 62.8311618,41.0946197 Z M65.4910255,34.5974033 C65.7012914,34.5974033 65.8800174,34.5273147 66.0272035,34.3871374 C66.1743897,34.2469602 66.2479827,34.075243 66.2479827,33.871986 C66.2479827,33.6617201 66.1743897,33.4864985 66.0272035,33.3463212 C65.8800174,33.206144 65.7012914,33.1360553 65.4910255,33.1360553 C65.2807596,33.1360553 65.1020336,33.206144 64.9548474,33.3463212 C64.8076613,33.4864985 64.7340682,33.6617201 64.7340682,33.871986 C64.7340682,34.075243 64.8076613,34.2469602 64.9548474,34.3871374 C65.1020336,34.5273147 65.2807596,34.5974033 65.4910255,34.5974033 Z M66.1428498,41 L66.1428498,35.5015467 L64.8707411,35.5015467 L64.8707411,41 L66.1428498,41 Z M68.9604128,41 L68.9604128,37.7619051 C68.9604128,37.3413733 69.0813157,37.0172134 69.3231215,36.7894254 C69.5649273,36.5616373 69.8750695,36.4477433 70.2535481,36.4477433 C70.6320267,36.4477433 70.9088768,36.5458674 71.0840984,36.7421155 C71.25932,36.9383637 71.3469308,37.2432493 71.3469308,37.6567722 L71.3469308,37.6567722 L71.3469308,41 L72.6190395,41 L72.6190395,37.5411259 C72.6190395,36.8122042 72.4508268,36.2707695 72.1144013,35.9168219 C71.7779759,35.5628743 71.3188953,35.3859005 70.7371597,35.3859005 C70.309619,35.3859005 69.9416537,35.4787679 69.6332637,35.6645028 C69.3248737,35.8502377 69.1005901,36.0867868 68.9604128,36.3741502 L68.9604128,36.3741502 L68.9604128,35.5015467 L67.6883041,35.5015467 L67.6883041,41 L68.9604128,41 Z M76.4248523,43.0185526 C77.2939513,43.0185526 77.9755633,42.8117912 78.4696882,42.3982682 C78.963813,41.9847453 79.2143799,41.3819831 79.2213887,40.5899815 L79.2213887,40.5899815 L79.2213887,35.5015467 L77.9492801,35.5015467 L77.9492801,36.3426103 C77.5848192,35.7048038 76.9960746,35.3859005 76.1830465,35.3859005 C75.4751513,35.3859005 74.8864068,35.6434762 74.4168129,36.1586277 C73.9472191,36.6737791 73.7124222,37.3168423 73.7124222,38.0878173 L73.7124222,38.0878173 L73.7124222,38.1614103 C73.7124222,38.9393942 73.9437147,39.5701919 74.4062996,40.0538035 C74.8688846,40.537415 75.4506203,40.7792208 76.1515066,40.7792208 C76.5369941,40.7792208 76.8926939,40.6793445 77.2186061,40.4795919 C77.5445182,40.2798393 77.7880762,40.0397857 77.9492801,39.7594312 L77.9492801,39.7594312 L77.9492801,40.5689549 C77.9492801,41.5572046 77.437633,42.0513295 76.414339,42.0513295 C75.6223374,42.0513295 75.1702657,41.7639661 75.0581239,41.1892393 L75.0581239,41.1892393 L73.7755019,41.1892393 C73.8525994,41.7499484 74.1084229,42.1950112 74.5429725,42.5244278 C74.977522,42.8538444 75.6048153,43.0185526 76.4248523,43.0185526 Z M76.4669055,39.8014844 C76.0463737,39.8014844 75.6994349,39.6507938 75.4260893,39.3494127 C75.1527436,39.0480316 75.0160707,38.6485264 75.0160707,38.1508971 L75.0160707,38.1508971 L75.0160707,38.0667907 C75.0160707,37.5621525 75.1492392,37.1556385 75.415576,36.8472485 C75.6819128,36.5388585 76.0463737,36.3846635 76.5089586,36.3846635 C76.9645348,36.3846635 77.3254912,36.5318496 77.591828,36.8262219 C77.8581648,37.1205941 77.9913332,37.5271082 77.9913332,38.0457641 L77.9913332,38.0457641 L77.9913332,38.1193572 C77.9913332,38.6380131 77.8494038,39.0480316 77.5655448,39.3494127 C77.2816858,39.6507938 76.9154727,39.8014844 76.4669055,39.8014844 Z M84.5095761,41 L84.5095761,37.7093387 C84.5095761,37.3098335 84.6269746,36.9996913 84.8617715,36.7789121 C85.0965684,36.5581329 85.3821796,36.4477433 85.7186051,36.4477433 C86.3704293,36.4477433 86.6963415,36.8332307 86.6963415,37.6042057 L86.6963415,37.6042057 L86.6963415,41 L87.9684502,41 L87.9684502,37.7093387 C87.9684502,37.3098335 88.0858487,36.9996913 88.3206456,36.7789121 C88.5554425,36.5581329 88.8410537,36.4477433 89.1774791,36.4477433 C89.8293034,36.4477433 90.1552155,36.8332307 90.1552155,37.6042057 L90.1552155,37.6042057 L90.1552155,41 L91.4273242,41 L91.4273242,37.5200994 C91.4273242,36.8051953 91.2573593,36.2707695 90.9174294,35.9168219 C90.5774996,35.5628743 90.1376934,35.3859005 89.5980109,35.3859005 C89.23355,35.3859005 88.8831069,35.4700068 88.5466814,35.6382196 C88.210256,35.8064323 87.9404147,36.0517425 87.7371577,36.3741502 C87.4708209,35.715317 86.952165,35.3859005 86.18119,35.3859005 C85.7957026,35.3859005 85.4557727,35.4770157 85.1614004,35.6592461 C84.8670282,35.8414766 84.6497534,36.0692646 84.5095761,36.3426103 L84.5095761,36.3426103 L84.5095761,35.5015467 L83.2374674,35.5015467 L83.2374674,41 L84.5095761,41 Z M94.3289937,41.1051329 C95.0579155,41.1051329 95.6186245,40.845805 96.0111209,40.3271491 L96.0111209,40.3271491 L96.0111209,41 L97.262203,41 L97.262203,37.3939398 C97.262203,36.0552469 96.5297768,35.3859005 95.0649243,35.3859005 C94.4060912,35.3859005 93.861152,35.536591 93.4301069,35.8379722 C92.9990618,36.1393533 92.7590083,36.5949294 92.7099462,37.2047005 L92.7099462,37.2047005 L93.9400017,37.2047005 C94.0030815,36.6299737 94.3535247,36.3426103 94.9913312,36.3426103 C95.3557921,36.3426103 95.6133679,36.4319733 95.7640584,36.6106993 C95.914749,36.7894254 95.9900943,37.0680277 95.9900943,37.4465063 L95.9900943,37.4465063 L95.9900943,37.7303653 L95.3067301,37.7303653 C94.4516488,37.7303653 93.7682846,37.8705425 93.2566376,38.1508971 C92.7449906,38.4312516 92.489167,38.87281 92.489167,39.4755722 C92.489167,40.0222636 92.6608842,40.4305299 93.0043185,40.7003711 C93.3477528,40.9702123 93.7893112,41.1051329 94.3289937,41.1051329 Z M94.6338792,40.1904763 C94.0451347,40.1904763 93.7507624,39.9346528 93.7507624,39.4230058 C93.7507624,38.8272524 94.2799316,38.5293757 95.33827,38.5293757 L95.33827,38.5293757 L95.9900943,38.5293757 L95.9900943,39.076067 C95.9900943,39.4195013 95.8639347,39.6910948 95.6116157,39.8908474 C95.3592966,40.0906 95.0333844,40.1904763 94.6338792,40.1904763 Z M100.784157,41.1051329 C101.169644,41.1051329 101.528849,41.0052566 101.86177,40.805504 C102.194691,40.6057514 102.438249,40.3621934 102.592444,40.07483 L102.592444,40.07483 L102.592444,41 L103.864552,41 L103.864552,32.9573293 L102.592444,32.9573293 L102.592444,36.3426103 C102.234992,35.7048038 101.649751,35.3859005 100.836723,35.3859005 C100.11481,35.3859005 99.5225614,35.6469806 99.0599764,36.1691409 C98.5973914,36.6913013 98.3660989,37.386931 98.3660989,38.25603 L98.3660989,38.25603 L98.3660989,38.3401364 C98.3660989,39.2092354 98.5903826,39.8873429 99.0389498,40.3744589 C99.4875171,40.8615749 100.069253,41.1051329 100.784157,41.1051329 Z M101.099556,40.0958566 C100.672015,40.0958566 100.326828,39.9434139 100.063996,39.6385283 C99.8011637,39.3336427 99.6697475,38.8903321 99.6697475,38.3085965 L99.6697475,38.3085965 L99.6697475,38.2244901 C99.6697475,37.6357456 99.7994115,37.1819217 100.058739,36.8630184 C100.318067,36.5441151 100.682528,36.3846635 101.152122,36.3846635 C101.621716,36.3846635 101.986177,36.5371063 102.245505,36.8419918 C102.504833,37.1468774 102.634497,37.5971969 102.634497,38.1929502 L102.634497,38.1929502 L102.634497,38.2770566 C102.634497,38.87281 102.494319,39.3248817 102.213965,39.6332716 C101.93361,39.9416616 101.562141,40.0958566 101.099556,40.0958566 Z M107.796525,41.1051329 C108.50442,41.1051329 109.079147,40.950938 109.520705,40.642548 C109.962263,40.334158 110.2286,39.8925996 110.319715,39.3178728 L110.319715,39.3178728 L109.08966,39.3178728 C108.991536,39.8785819 108.571004,40.1589364 107.828064,40.1589364 C107.358471,40.1589364 106.99401,40.0187591 106.734682,39.7384046 C106.475354,39.4580501 106.335177,39.0550404 106.31415,38.5293757 L106.31415,38.5293757 L110.340742,38.5293757 L110.340742,38.1614103 C110.340742,37.2362404 110.09368,36.5423629 109.599555,36.0797779 C109.10543,35.617193 108.486898,35.3859005 107.743958,35.3859005 C106.951957,35.3859005 106.29838,35.6487328 105.783229,36.1743976 C105.268077,36.7000623 105.010501,37.3834265 105.010501,38.2244901 L105.010501,38.2244901 L105.010501,38.3085965 C105.010501,39.1636778 105.269829,39.8435376 105.788485,40.3481757 C106.307141,40.8528139 106.976488,41.1051329 107.796525,41.1051329 Z M109.079147,37.6777988 L106.335177,37.6777988 C106.398256,37.2502581 106.554204,36.9155849 106.803018,36.6737791 C107.051833,36.4319733 107.365479,36.3110704 107.743958,36.3110704 C108.571004,36.3110704 109.016067,36.7666465 109.079147,37.6777988 L109.079147,37.6777988 Z M116.3964,41.1051329 C117.104295,41.1051329 117.679022,40.950938 118.12058,40.642548 C118.562139,40.334158 118.828475,39.8925996 118.919591,39.3178728 L118.919591,39.3178728 L117.689535,39.3178728 C117.591411,39.8785819 117.170879,40.1589364 116.42794,40.1589364 C115.958346,40.1589364 115.593885,40.0187591 115.334557,39.7384046 C115.075229,39.4580501 114.935052,39.0550404 114.914025,38.5293757 L114.914025,38.5293757 L118.940617,38.5293757 L118.940617,38.1614103 C118.940617,37.2362404 118.693555,36.5423629 118.19943,36.0797779 C117.705305,35.617193 117.086773,35.3859005 116.343833,35.3859005 C115.551832,35.3859005 114.898255,35.6487328 114.383104,36.1743976 C113.867952,36.7000623 113.610377,37.3834265 113.610377,38.2244901 L113.610377,38.2244901 L113.610377,38.3085965 C113.610377,39.1636778 113.869705,39.8435376 114.388361,40.3481757 C114.907016,40.8528139 115.576363,41.1051329 116.3964,41.1051329 Z M117.679022,37.6777988 L114.935052,37.6777988 C114.998132,37.2502581 115.154079,36.9155849 115.402893,36.6737791 C115.651708,36.4319733 115.965355,36.3110704 116.343833,36.3110704 C117.170879,36.3110704 117.615942,36.7666465 117.679022,37.6777988 L117.679022,37.6777988 Z M121.621507,41.1051329 C122.350429,41.1051329 122.911138,40.845805 123.303635,40.3271491 L123.303635,40.3271491 L123.303635,41 L124.554717,41 L124.554717,37.3939398 C124.554717,36.0552469 123.822291,35.3859005 122.357438,35.3859005 C121.698605,35.3859005 121.153666,35.536591 120.722621,35.8379722 C120.291576,36.1393533 120.051522,36.5949294 120.00246,37.2047005 L120.00246,37.2047005 L121.232516,37.2047005 C121.295595,36.6299737 121.646039,36.3426103 122.283845,36.3426103 C122.648306,36.3426103 122.905882,36.4319733 123.056572,36.6106993 C123.207263,36.7894254 123.282608,37.0680277 123.282608,37.4465063 L123.282608,37.4465063 L123.282608,37.7303653 L122.599244,37.7303653 C121.744163,37.7303653 121.060798,37.8705425 120.549151,38.1508971 C120.037504,38.4312516 119.781681,38.87281 119.781681,39.4755722 C119.781681,40.0222636 119.953398,40.4305299 120.296832,40.7003711 C120.640267,40.9702123 121.081825,41.1051329 121.621507,41.1051329 Z M121.926393,40.1904763 C121.337649,40.1904763 121.043276,39.9346528 121.043276,39.4230058 C121.043276,38.8272524 121.572445,38.5293757 122.630784,38.5293757 L122.630784,38.5293757 L123.282608,38.5293757 L123.282608,39.076067 C123.282608,39.4195013 123.156449,39.6910948 122.904129,39.8908474 C122.65181,40.0906 122.325898,40.1904763 121.926393,40.1904763 Z M127.897945,41.1051329 C128.598831,41.1051329 129.140266,40.9526902 129.522249,40.6478046 C129.904232,40.3429191 130.095223,39.9101218 130.095223,39.3494127 C130.095223,38.8027213 129.930515,38.4137294 129.601098,38.1824369 C129.271682,37.9511445 128.749521,37.7794273 128.034617,37.6672855 C127.600068,37.590188 127.302191,37.5025772 127.140987,37.4044531 C126.979784,37.306329 126.899182,37.1591429 126.899182,36.9628947 C126.899182,36.7666465 126.976279,36.6089471 127.130474,36.4897964 C127.284669,36.3706458 127.498439,36.3110704 127.771785,36.3110704 C128.066157,36.3110704 128.288689,36.3706458 128.439379,36.4897964 C128.59007,36.6089471 128.693451,36.794682 128.749521,37.0470011 L128.749521,37.0470011 L129.927011,37.0470011 C129.80786,35.9396007 129.089451,35.3859005 127.771785,35.3859005 C127.211076,35.3859005 126.727464,35.5313344 126.32095,35.8222022 C125.914436,36.11307 125.711179,36.5178319 125.711179,37.0364878 C125.711179,37.5481348 125.858365,37.9248612 126.152738,38.166667 C126.44711,38.4084728 126.962261,38.588951 127.698192,38.7081017 C128.125733,38.7781903 128.428866,38.8675533 128.607592,38.9761907 C128.786318,39.0848281 128.875681,39.2477842 128.875681,39.4650589 C128.875681,39.9346528 128.546264,40.1694497 127.887431,40.1694497 C127.529979,40.1694497 127.267147,40.0958566 127.098934,39.9486705 C126.930721,39.8014844 126.829093,39.5807052 126.794049,39.2863329 L126.794049,39.2863329 L125.595533,39.2863329 C125.623568,39.8680686 125.837339,40.3166358 126.236844,40.6320347 C126.636349,40.9474335 127.190049,41.1051329 127.897945,41.1051329 Z M132.755087,42.8818798 L135.751376,35.5015467 L134.510807,35.5015467 L133.165105,39.0445271 L131.703757,35.5015467 L130.326516,35.5015467 L132.502768,40.4427954 L131.504005,42.8818798 L132.755087,42.8818798 Z" id="smartinvestingmadeeasy" fill="#FFFFFF" fill-rule="nonzero"></path>
            </g>
        </g>
    </g>
</svg>