<svg id="Layer_1" data-name="Layer 1" xmlns="http://www.w3.org/2000/svg" viewBox="0 0 20.08 13.42"><defs><style>.cls-1{fill:#231f20;}.cls-2{fill:#fff;}.cls-3{fill:#bf0a30;}.cls-4{fill:#002868;}</style></defs><title>Flags [Convertido]</title><path class="cls-1" d="M0,13.42V0H20.08V13.42Zm20,0v0Zm-20-.05H20V.08H.08Z"/><rect class="cls-2" x="0.04" y="9.27" width="20" height="1.03"/><rect class="cls-3" x="0.04" y="8.25" width="20" height="1.03"/><rect class="cls-2" x="0.04" y="11.32" width="20" height="1.03"/><rect class="cls-3" x="0.04" y="12.35" width="20" height="1.03"/><rect class="cls-3" x="0.04" y="10.3" width="20" height="1.03"/><rect class="cls-2" x="0.04" y="7.22" width="20" height="1.03"/><rect class="cls-3" x="0.04" y="4.14" width="20" height="1.03"/><rect class="cls-2" x="0.04" y="1.07" width="20" height="1.03"/><rect class="cls-3" x="0.04" y="2.09" width="20" height="1.03"/><rect class="cls-3" x="0.04" y="6.19" width="20" height="1.03"/><rect class="cls-3" x="0.04" y="0.04" width="20" height="1.02"/><rect class="cls-2" x="0.04" y="3.12" width="20" height="1.03"/><rect class="cls-2" x="0.04" y="5.17" width="20" height="1.03"/><rect class="cls-4" x="0.04" y="0.04" width="8" height="7.19"/><polygon class="cls-2" points="6.05 0.43 6.11 0.6 6.28 0.6 6.14 0.7 6.2 0.87 6.05 0.77 5.91 0.87 5.96 0.7 5.82 0.6 6 0.6 6.05 0.43"/><polygon class="cls-2" points="6.05 1.92 6.11 2.09 6.28 2.09 6.14 2.19 6.2 2.36 6.05 2.26 5.91 2.36 5.96 2.19 5.82 2.09 6 2.09 6.05 1.92"/><polygon class="cls-2" points="6.05 3.41 6.11 3.58 6.28 3.58 6.14 3.69 6.2 3.86 6.05 3.75 5.91 3.86 5.96 3.69 5.82 3.58 6 3.58 6.05 3.41"/><polygon class="cls-2" points="6.05 4.94 6.11 5.11 6.28 5.11 6.14 5.22 6.2 5.39 6.05 5.28 5.91 5.39 5.96 5.22 5.82 5.11 6 5.11 6.05 4.94"/><polygon class="cls-2" points="6.05 6.4 6.11 6.57 6.28 6.57 6.14 6.67 6.2 6.84 6.05 6.74 5.91 6.84 5.96 6.67 5.82 6.57 6 6.57 6.05 6.4"/><polygon class="cls-2" points="4.71 0.43 4.77 0.6 4.95 0.6 4.8 0.7 4.86 0.87 4.71 0.77 4.57 0.87 4.62 0.7 4.48 0.6 4.66 0.6 4.71 0.43"/><polygon class="cls-2" points="4.71 1.92 4.77 2.09 4.95 2.09 4.8 2.19 4.86 2.36 4.71 2.26 4.57 2.36 4.62 2.19 4.48 2.09 4.66 2.09 4.71 1.92"/><polygon class="cls-2" points="4.71 3.41 4.77 3.58 4.95 3.58 4.8 3.69 4.86 3.86 4.71 3.75 4.57 3.86 4.62 3.69 4.48 3.58 4.66 3.58 4.71 3.41"/><polygon class="cls-2" points="4.71 4.94 4.77 5.11 4.95 5.11 4.8 5.22 4.86 5.39 4.71 5.28 4.57 5.39 4.62 5.22 4.48 5.11 4.66 5.11 4.71 4.94"/><polygon class="cls-2" points="4.71 6.4 4.77 6.57 4.95 6.57 4.8 6.67 4.86 6.84 4.71 6.74 4.57 6.84 4.62 6.67 4.48 6.57 4.66 6.57 4.71 6.4"/><polygon class="cls-2" points="3.37 0.43 3.43 0.6 3.61 0.6 3.46 0.7 3.52 0.87 3.37 0.77 3.23 0.87 3.28 0.7 3.14 0.6 3.32 0.6 3.37 0.43"/><polygon class="cls-2" points="3.37 1.92 3.43 2.09 3.61 2.09 3.46 2.19 3.52 2.36 3.37 2.26 3.23 2.36 3.28 2.19 3.14 2.09 3.32 2.09 3.37 1.92"/><polygon class="cls-2" points="3.37 3.41 3.43 3.58 3.61 3.58 3.46 3.69 3.52 3.86 3.37 3.75 3.23 3.86 3.28 3.69 3.14 3.58 3.32 3.58 3.37 3.41"/><polygon class="cls-2" points="3.37 4.94 3.43 5.11 3.61 5.11 3.46 5.22 3.52 5.39 3.37 5.28 3.23 5.39 3.28 5.22 3.14 5.11 3.32 5.11 3.37 4.94"/><polygon class="cls-2" points="3.37 6.4 3.43 6.57 3.61 6.57 3.46 6.67 3.52 6.84 3.37 6.74 3.23 6.84 3.28 6.67 3.14 6.57 3.32 6.57 3.37 6.4"/><polygon class="cls-2" points="2.03 0.43 2.09 0.6 2.27 0.6 2.12 0.7 2.18 0.87 2.03 0.77 1.89 0.87 1.94 0.7 1.8 0.6 1.98 0.6 2.03 0.43"/><polygon class="cls-2" points="2.03 1.92 2.09 2.09 2.27 2.09 2.12 2.19 2.18 2.36 2.03 2.26 1.89 2.36 1.94 2.19 1.8 2.09 1.98 2.09 2.03 1.92"/><polygon class="cls-2" points="2.03 3.41 2.09 3.58 2.27 3.58 2.12 3.69 2.18 3.86 2.03 3.75 1.89 3.86 1.94 3.69 1.8 3.58 1.98 3.58 2.03 3.41"/><polygon class="cls-2" points="2.03 4.94 2.09 5.11 2.27 5.11 2.12 5.22 2.18 5.39 2.03 5.28 1.89 5.39 1.94 5.22 1.8 5.11 1.98 5.11 2.03 4.94"/><polygon class="cls-2" points="2.03 6.4 2.09 6.57 2.27 6.57 2.12 6.67 2.18 6.84 2.03 6.74 1.89 6.84 1.94 6.67 1.8 6.57 1.98 6.57 2.03 6.4"/><polygon class="cls-2" points="0.69 0.43 0.75 0.6 0.93 0.6 0.78 0.7 0.84 0.87 0.69 0.77 0.55 0.87 0.6 0.7 0.46 0.6 0.64 0.6 0.69 0.43"/><polygon class="cls-2" points="0.69 1.92 0.75 2.09 0.93 2.09 0.78 2.19 0.84 2.36 0.69 2.26 0.55 2.36 0.6 2.19 0.46 2.09 0.64 2.09 0.69 1.92"/><polygon class="cls-2" points="0.69 3.41 0.75 3.58 0.93 3.58 0.78 3.69 0.84 3.86 0.69 3.75 0.55 3.86 0.6 3.69 0.46 3.58 0.64 3.58 0.69 3.41"/><polygon class="cls-2" points="0.69 4.94 0.75 5.11 0.93 5.11 0.78 5.22 0.84 5.39 0.69 5.28 0.55 5.39 0.6 5.22 0.46 5.11 0.64 5.11 0.69 4.94"/><polygon class="cls-2" points="0.69 6.4 0.75 6.57 0.93 6.57 0.78 6.67 0.84 6.84 0.69 6.74 0.55 6.84 0.6 6.67 0.46 6.57 0.64 6.57 0.69 6.4"/><polygon class="cls-2" points="6.73 1.17 6.79 1.34 6.97 1.34 6.82 1.45 6.88 1.62 6.73 1.51 6.59 1.62 6.64 1.45 6.5 1.34 6.68 1.34 6.73 1.17"/><polygon class="cls-2" points="6.73 2.71 6.79 2.88 6.97 2.88 6.82 2.99 6.88 3.16 6.73 3.05 6.59 3.16 6.64 2.99 6.5 2.88 6.68 2.88 6.73 2.71"/><polygon class="cls-2" points="6.72 4.22 6.78 4.39 6.95 4.39 6.81 4.5 6.87 4.67 6.72 4.56 6.58 4.67 6.63 4.5 6.49 4.39 6.66 4.39 6.72 4.22"/><polygon class="cls-2" points="6.71 5.72 6.76 5.89 6.94 5.89 6.8 5.99 6.85 6.16 6.71 6.06 6.56 6.16 6.62 5.99 6.47 5.89 6.65 5.89 6.71 5.72"/><polygon class="cls-2" points="5.39 1.17 5.45 1.34 5.63 1.34 5.48 1.45 5.54 1.62 5.39 1.51 5.25 1.62 5.3 1.45 5.16 1.34 5.34 1.34 5.39 1.17"/><polygon class="cls-2" points="5.39 2.71 5.45 2.88 5.63 2.88 5.48 2.99 5.54 3.16 5.39 3.05 5.25 3.16 5.3 2.99 5.16 2.88 5.34 2.88 5.39 2.71"/><polygon class="cls-2" points="5.38 4.22 5.44 4.39 5.62 4.39 5.47 4.5 5.53 4.67 5.38 4.56 5.24 4.67 5.29 4.5 5.15 4.39 5.33 4.39 5.38 4.22"/><polygon class="cls-2" points="5.37 5.72 5.42 5.89 5.6 5.89 5.46 5.99 5.51 6.16 5.37 6.06 5.22 6.16 5.28 5.99 5.13 5.89 5.31 5.89 5.37 5.72"/><polygon class="cls-2" points="4.05 1.12 4.11 1.29 4.29 1.29 4.14 1.39 4.2 1.56 4.05 1.46 3.91 1.56 3.97 1.39 3.82 1.29 4 1.29 4.05 1.12"/><polygon class="cls-2" points="4.05 2.66 4.11 2.83 4.29 2.83 4.14 2.94 4.2 3.1 4.05 3 3.91 3.1 3.97 2.94 3.82 2.83 4 2.83 4.05 2.66"/><polygon class="cls-2" points="4.04 4.17 4.1 4.34 4.28 4.34 4.13 4.45 4.19 4.62 4.04 4.51 3.9 4.62 3.95 4.45 3.81 4.34 3.99 4.34 4.04 4.17"/><polygon class="cls-2" points="4.03 5.67 4.08 5.83 4.26 5.83 4.12 5.94 4.17 6.11 4.03 6 3.88 6.11 3.94 5.94 3.79 5.83 3.97 5.83 4.03 5.67"/><polygon class="cls-2" points="2.72 1.1 2.77 1.27 2.95 1.27 2.81 1.38 2.86 1.55 2.72 1.44 2.57 1.55 2.63 1.38 2.48 1.27 2.66 1.27 2.72 1.1"/><polygon class="cls-2" points="2.72 2.65 2.77 2.81 2.95 2.81 2.81 2.92 2.86 3.09 2.72 2.98 2.57 3.09 2.63 2.92 2.48 2.81 2.66 2.81 2.72 2.65"/><polygon class="cls-2" points="2.7 4.16 2.76 4.33 2.94 4.33 2.79 4.43 2.85 4.6 2.7 4.5 2.56 4.6 2.61 4.43 2.47 4.33 2.65 4.33 2.7 4.16"/><polygon class="cls-2" points="2.69 5.65 2.75 5.82 2.92 5.82 2.78 5.92 2.83 6.09 2.69 5.99 2.54 6.09 2.6 5.92 2.46 5.82 2.63 5.82 2.69 5.65"/><polygon class="cls-2" points="1.38 1.08 1.43 1.25 1.61 1.25 1.47 1.35 1.52 1.52 1.38 1.42 1.23 1.52 1.29 1.35 1.14 1.25 1.32 1.25 1.38 1.08"/><polygon class="cls-2" points="1.38 2.62 1.43 2.79 1.61 2.79 1.47 2.89 1.52 3.06 1.38 2.96 1.23 3.06 1.29 2.89 1.14 2.79 1.32 2.79 1.38 2.62"/><polygon class="cls-2" points="1.36 4.13 1.42 4.3 1.6 4.3 1.45 4.41 1.51 4.58 1.36 4.47 1.22 4.58 1.27 4.41 1.13 4.3 1.31 4.3 1.36 4.13"/><polygon class="cls-2" points="1.35 5.62 1.41 5.79 1.58 5.79 1.44 5.9 1.5 6.07 1.35 5.96 1.21 6.07 1.26 5.9 1.12 5.79 1.29 5.79 1.35 5.62"/><polygon class="cls-2" points="7.39 0.43 7.44 0.6 7.62 0.6 7.48 0.7 7.53 0.87 7.39 0.77 7.25 0.87 7.3 0.7 7.16 0.6 7.33 0.6 7.39 0.43"/><polygon class="cls-2" points="7.39 1.92 7.44 2.09 7.62 2.09 7.48 2.19 7.53 2.36 7.39 2.26 7.25 2.36 7.3 2.19 7.16 2.09 7.33 2.09 7.39 1.92"/><polygon class="cls-2" points="7.39 3.41 7.44 3.58 7.62 3.58 7.48 3.69 7.53 3.86 7.39 3.75 7.25 3.86 7.3 3.69 7.16 3.58 7.33 3.58 7.39 3.41"/><polygon class="cls-2" points="7.39 4.94 7.44 5.11 7.62 5.11 7.48 5.22 7.53 5.39 7.39 5.28 7.25 5.39 7.3 5.22 7.16 5.11 7.33 5.11 7.39 4.94"/><polygon class="cls-2" points="7.39 6.4 7.44 6.57 7.62 6.57 7.48 6.67 7.53 6.84 7.39 6.74 7.25 6.84 7.3 6.67 7.16 6.57 7.33 6.57 7.39 6.4"/></svg>