<svg width="36" height="36" fill="none" xmlns="http://www.w3.org/2000/svg"><path clip-rule="evenodd" d="M34.935 17.968c0 9.371-7.597 16.968-16.968 16.968C8.597 34.936 1 27.339 1 17.968 1 8.597 8.597 1 17.967 1c9.371 0 16.968 7.597 16.968 16.968z" stroke="#fff"/><g clip-path="url(#a)" fill="#fff"><path d="m24.7 24.578-5.24-7.612-.591-.86-3.75-5.445-.31-.451h-4.604l1.123 1.632 4.983 7.24.592.86 4.004 5.818.31.45h4.606L24.7 24.578zm-2.936.59-4.16-6.045-.591-.86-4.827-7.012h2.076l3.904 5.672.592.86 5.083 7.386h-2.077v-.002z"/><path d="m17.012 18.264.592.86-.702.818-5.388 6.268h-1.329l6.125-7.128.702-.818zM25.268 10.21l-5.807 6.756-.703.817-.592-.86.703-.818 3.934-4.579 1.137-1.316h1.328z"/></g><defs><clipPath id="a"><path fill="#fff" transform="translate(10.182 10.21)" d="M0 0h15.635v16H0z"/></clipPath></defs></svg>